<svg width="189" height="77" viewBox="0 0 189 77" fill="none" xmlns="http://www.w3.org/2000/svg">
<path d="M0.720029 25.848C0.528029 25.848 0.360029 25.776 0.216029 25.632C0.0720293 25.488 2.93478e-05 25.32 2.93478e-05 25.128C2.93478e-05 25.008 0.0120293 24.876 0.0360294 24.732L8.96403 1.44002C9.06003 1.20002 9.19203 1.00802 9.36003 0.864022C9.52803 0.720021 9.78003 0.648021 10.116 0.648021H12.564C12.9 0.648021 13.152 0.720021 13.32 0.864022C13.488 1.00802 13.62 1.20002 13.716 1.44002L22.608 24.732C22.656 24.876 22.68 25.008 22.68 25.128C22.68 25.32 22.608 25.488 22.464 25.632C22.32 25.776 22.152 25.848 21.96 25.848H20.124C19.836 25.848 19.62 25.776 19.476 25.632C19.356 25.488 19.272 25.356 19.224 25.236L17.244 20.124H5.43603L3.45603 25.236C3.43203 25.356 3.34803 25.488 3.20403 25.632C3.06003 25.776 2.84403 25.848 2.55603 25.848H0.720029ZM6.48003 17.028H16.2L11.34 4.24802L6.48003 17.028ZM31.2812 26.208C30.0812 26.208 28.9892 25.968 28.0052 25.488C27.0212 25.008 26.2292 24.36 25.6292 23.544C25.0292 22.728 24.7292 21.804 24.7292 20.772C24.7292 19.116 25.4012 17.796 26.7452 16.812C28.0892 15.828 29.8412 15.18 32.0012 14.868L37.3652 14.112V13.068C37.3652 11.916 37.0292 11.016 36.3572 10.368C35.7092 9.72002 34.6412 9.39602 33.1532 9.39602C32.0972 9.39602 31.2332 9.61202 30.5612 10.044C29.8892 10.476 29.4212 11.028 29.1572 11.7C29.0132 12.06 28.7612 12.24 28.4012 12.24H26.7812C26.5172 12.24 26.3132 12.168 26.1692 12.024C26.0492 11.856 25.9892 11.664 25.9892 11.448C25.9892 11.088 26.1212 10.644 26.3852 10.116C26.6732 9.58802 27.1052 9.07202 27.6812 8.56802C28.2572 8.06402 28.9892 7.64402 29.8772 7.30802C30.7892 6.94802 31.8932 6.76802 33.1892 6.76802C34.6292 6.76802 35.8412 6.96002 36.8252 7.34402C37.8092 7.70402 38.5772 8.19602 39.1292 8.82002C39.7052 9.44402 40.1132 10.152 40.3532 10.944C40.6172 11.736 40.7492 12.54 40.7492 13.356V25.02C40.7492 25.26 40.6652 25.464 40.4972 25.632C40.3532 25.776 40.1612 25.848 39.9212 25.848H38.2652C38.0012 25.848 37.7972 25.776 37.6532 25.632C37.5092 25.464 37.4372 25.26 37.4372 25.02V23.472C37.1252 23.904 36.7052 24.336 36.1772 24.768C35.6492 25.176 34.9892 25.524 34.1972 25.812C33.4052 26.076 32.4332 26.208 31.2812 26.208ZM32.0372 23.508C33.0212 23.508 33.9212 23.304 34.7372 22.896C35.5532 22.464 36.1892 21.804 36.6452 20.916C37.1252 20.028 37.3652 18.912 37.3652 17.568V16.56L33.1892 17.172C31.4852 17.412 30.2012 17.82 29.3372 18.396C28.4732 18.948 28.0412 19.656 28.0412 20.52C28.0412 21.192 28.2332 21.756 28.6172 22.212C29.0252 22.644 29.5292 22.968 30.1292 23.184C30.7532 23.4 31.3892 23.508 32.0372 23.508ZM46.7885 25.848C46.5485 25.848 46.3445 25.776 46.1765 25.632C46.0325 25.464 45.9605 25.26 45.9605 25.02V1.11602C45.9605 0.876021 46.0325 0.684022 46.1765 0.540022C46.3445 0.372021 46.5485 0.288021 46.7885 0.288021H48.4805C48.7205 0.288021 48.9125 0.372021 49.0565 0.540022C49.2245 0.684022 49.3085 0.876021 49.3085 1.11602V13.644L56.4005 7.74002C56.6885 7.50002 56.9045 7.34402 57.0485 7.27202C57.2165 7.17602 57.4805 7.12802 57.8405 7.12802H59.7485C59.9645 7.12802 60.1445 7.20002 60.2885 7.34402C60.4325 7.48802 60.5045 7.66802 60.5045 7.88402C60.5045 7.98002 60.4685 8.08802 60.3965 8.20802C60.3485 8.32802 60.2405 8.44802 60.0725 8.56802L51.7565 15.48L60.9725 24.444C61.2605 24.684 61.4045 24.9 61.4045 25.092C61.4045 25.308 61.3325 25.488 61.1885 25.632C61.0445 25.776 60.8645 25.848 60.6485 25.848H58.7765C58.4165 25.848 58.1525 25.812 57.9845 25.74C57.8165 25.644 57.6005 25.476 57.3365 25.236L49.3085 17.568V25.02C49.3085 25.26 49.2245 25.464 49.0565 25.632C48.9125 25.776 48.7205 25.848 48.4805 25.848H46.7885ZM65.315 25.848C65.075 25.848 64.871 25.776 64.703 25.632C64.559 25.464 64.487 25.26 64.487 25.02V7.99202C64.487 7.75202 64.559 7.54802 64.703 7.38002C64.871 7.21202 65.075 7.12802 65.315 7.12802H66.971C67.211 7.12802 67.415 7.21202 67.583 7.38002C67.751 7.54802 67.835 7.75202 67.835 7.99202V9.57602C68.315 8.76002 68.975 8.14802 69.815 7.74002C70.655 7.33202 71.675 7.12802 72.875 7.12802H74.279C74.519 7.12802 74.711 7.21202 74.855 7.38002C75.023 7.52402 75.107 7.71602 75.107 7.95602V9.43202C75.107 9.67202 75.023 9.86402 74.855 10.008C74.711 10.152 74.519 10.224 74.279 10.224H72.119C70.823 10.224 69.803 10.608 69.059 11.376C68.315 12.12 67.943 13.14 67.943 14.436V25.02C67.943 25.26 67.859 25.464 67.691 25.632C67.523 25.776 67.319 25.848 67.079 25.848H65.315ZM78.9908 25.848C78.7508 25.848 78.5468 25.776 78.3788 25.632C78.2348 25.464 78.1628 25.26 78.1628 25.02V7.95602C78.1628 7.71602 78.2348 7.52402 78.3788 7.38002C78.5468 7.21202 78.7508 7.12802 78.9908 7.12802H80.7188C80.9588 7.12802 81.1508 7.21202 81.2948 7.38002C81.4628 7.52402 81.5468 7.71602 81.5468 7.95602V25.02C81.5468 25.26 81.4628 25.464 81.2948 25.632C81.1508 25.776 80.9588 25.848 80.7188 25.848H78.9908ZM78.7028 3.63602C78.4628 3.63602 78.2588 3.56402 78.0908 3.42002C77.9468 3.25202 77.8748 3.04802 77.8748 2.80802V0.864022C77.8748 0.624021 77.9468 0.420021 78.0908 0.252022C78.2588 0.0840209 78.4628 2.0504e-05 78.7028 2.0504e-05H80.9708C81.2108 2.0504e-05 81.4148 0.0840209 81.5828 0.252022C81.7508 0.420021 81.8348 0.624021 81.8348 0.864022V2.80802C81.8348 3.04802 81.7508 3.25202 81.5828 3.42002C81.4148 3.56402 81.2108 3.63602 80.9708 3.63602H78.7028ZM94.1895 25.848C92.8455 25.848 91.7535 25.596 90.9135 25.092C90.0735 24.564 89.4615 23.832 89.0775 22.896C88.6935 21.936 88.5015 20.808 88.5015 19.512V10.008H85.6935C85.4535 10.008 85.2495 9.93602 85.0815 9.79202C84.9375 9.62402 84.8655 9.42002 84.8655 9.18002V7.95602C84.8655 7.71602 84.9375 7.52402 85.0815 7.38002C85.2495 7.21202 85.4535 7.12802 85.6935 7.12802H88.5015V1.11602C88.5015 0.876021 88.5735 0.684022 88.7175 0.540022C88.8855 0.372021 89.0895 0.288021 89.3295 0.288021H91.0215C91.2615 0.288021 91.4535 0.372021 91.5975 0.540022C91.7655 0.684022 91.8495 0.876021 91.8495 1.11602V7.12802H96.3135C96.5775 7.12802 96.7815 7.21202 96.9255 7.38002C97.0695 7.52402 97.1415 7.71602 97.1415 7.95602V9.18002C97.1415 9.42002 97.0695 9.62402 96.9255 9.79202C96.7815 9.93602 96.5775 10.008 96.3135 10.008H91.8495V19.26C91.8495 20.388 92.0415 21.276 92.4255 21.924C92.8095 22.572 93.4935 22.896 94.4775 22.896H96.6735C96.9135 22.896 97.1055 22.98 97.2495 23.148C97.4175 23.292 97.5015 23.484 97.5015 23.724V25.02C97.5015 25.26 97.4175 25.464 97.2495 25.632C97.1055 25.776 96.9135 25.848 96.6735 25.848H94.1895ZM101.772 25.848C101.532 25.848 101.328 25.776 101.16 25.632C101.016 25.464 100.944 25.26 100.944 25.02V7.95602C100.944 7.71602 101.016 7.52402 101.16 7.38002C101.328 7.21202 101.532 7.12802 101.772 7.12802H103.5C103.74 7.12802 103.932 7.21202 104.076 7.38002C104.244 7.52402 104.328 7.71602 104.328 7.95602V25.02C104.328 25.26 104.244 25.464 104.076 25.632C103.932 25.776 103.74 25.848 103.5 25.848H101.772ZM101.484 3.63602C101.244 3.63602 101.04 3.56402 100.872 3.42002C100.728 3.25202 100.656 3.04802 100.656 2.80802V0.864022C100.656 0.624021 100.728 0.420021 100.872 0.252022C101.04 0.0840209 101.244 2.0504e-05 101.484 2.0504e-05H103.752C103.992 2.0504e-05 104.196 0.0840209 104.364 0.252022C104.532 0.420021 104.616 0.624021 104.616 0.864022V2.80802C104.616 3.04802 104.532 3.25202 104.364 3.42002C104.196 3.56402 103.992 3.63602 103.752 3.63602H101.484ZM3.24003 68.848C2.97603 68.848 2.77203 68.776 2.62803 68.632C2.48403 68.464 2.41203 68.26 2.41203 68.02V44.476C2.41203 44.236 2.48403 44.044 2.62803 43.9C2.77203 43.732 2.97603 43.648 3.24003 43.648H5.14803C5.41203 43.648 5.61603 43.732 5.76003 43.9C5.90403 44.044 5.97603 44.236 5.97603 44.476V68.02C5.97603 68.26 5.90403 68.464 5.76003 68.632C5.61603 68.776 5.41203 68.848 5.14803 68.848H3.24003ZM12.6158 68.848C12.3758 68.848 12.1718 68.776 12.0038 68.632C11.8598 68.464 11.7878 68.26 11.7878 68.02V50.956C11.7878 50.716 11.8598 50.524 12.0038 50.38C12.1718 50.212 12.3758 50.128 12.6158 50.128H14.3078C14.5478 50.128 14.7398 50.212 14.8838 50.38C15.0518 50.524 15.1358 50.716 15.1358 50.956V52.54C15.7598 51.724 16.5398 51.064 17.4758 50.56C18.4358 50.032 19.6598 49.768 21.1478 49.768C22.7078 49.768 24.0278 50.116 25.1078 50.812C26.2118 51.484 27.0398 52.432 27.5918 53.656C28.1678 54.856 28.4558 56.26 28.4558 57.868V68.02C28.4558 68.26 28.3718 68.464 28.2038 68.632C28.0598 68.776 27.8678 68.848 27.6278 68.848H25.8278C25.5878 68.848 25.3838 68.776 25.2158 68.632C25.0718 68.464 24.9998 68.26 24.9998 68.02V58.048C24.9998 56.368 24.5918 55.06 23.7758 54.124C22.9598 53.164 21.7598 52.684 20.1758 52.684C18.6878 52.684 17.4878 53.164 16.5758 54.124C15.6878 55.06 15.2438 56.368 15.2438 58.048V68.02C15.2438 68.26 15.1598 68.464 14.9918 68.632C14.8478 68.776 14.6558 68.848 14.4158 68.848H12.6158ZM41.2878 76.768C39.6558 76.768 38.3118 76.552 37.2558 76.12C36.2238 75.688 35.4078 75.16 34.8078 74.536C34.2318 73.936 33.8118 73.324 33.5478 72.7C33.3078 72.1 33.1758 71.62 33.1518 71.26C33.1278 71.02 33.1998 70.816 33.3678 70.648C33.5598 70.48 33.7638 70.396 33.9798 70.396H35.7078C35.9238 70.396 36.1038 70.444 36.2478 70.54C36.3918 70.636 36.5118 70.84 36.6078 71.152C36.7518 71.512 36.9678 71.908 37.2558 72.34C37.5438 72.796 37.9878 73.18 38.5878 73.492C39.1878 73.828 40.0278 73.996 41.1078 73.996C42.2358 73.996 43.1838 73.84 43.9518 73.528C44.7198 73.216 45.2958 72.688 45.6798 71.944C46.0878 71.2 46.2918 70.168 46.2918 68.848V66.4C45.7158 67.144 44.9598 67.768 44.0238 68.272C43.0878 68.752 41.9118 68.992 40.4958 68.992C39.1518 68.992 37.9998 68.764 37.0398 68.308C36.0798 67.828 35.2878 67.192 34.6638 66.4C34.0638 65.584 33.6078 64.66 33.2958 63.628C33.0078 62.596 32.8398 61.516 32.7918 60.388C32.7678 59.716 32.7678 59.056 32.7918 58.408C32.8398 57.28 33.0078 56.2 33.2958 55.168C33.6078 54.136 34.0638 53.212 34.6638 52.396C35.2878 51.58 36.0798 50.944 37.0398 50.488C37.9998 50.008 39.1518 49.768 40.4958 49.768C41.9358 49.768 43.1238 50.032 44.0598 50.56C45.0198 51.088 45.7998 51.748 46.3998 52.54V50.992C46.3998 50.752 46.4718 50.548 46.6158 50.38C46.7838 50.212 46.9878 50.128 47.2278 50.128H48.8838C49.1238 50.128 49.3278 50.212 49.4958 50.38C49.6638 50.548 49.7478 50.752 49.7478 50.992V68.452C49.7478 70.06 49.4718 71.488 48.9198 72.736C48.3918 73.984 47.5038 74.968 46.2558 75.688C45.0318 76.408 43.3758 76.768 41.2878 76.768ZM41.2158 66.112C42.4158 66.112 43.3758 65.836 44.0958 65.284C44.8398 64.732 45.3798 64.036 45.7158 63.196C46.0758 62.356 46.2678 61.504 46.2918 60.64C46.3158 60.304 46.3278 59.896 46.3278 59.416C46.3278 58.912 46.3158 58.492 46.2918 58.156C46.2678 57.292 46.0758 56.44 45.7158 55.6C45.3798 54.76 44.8398 54.064 44.0958 53.512C43.3758 52.96 42.4158 52.684 41.2158 52.684C40.0158 52.684 39.0558 52.96 38.3358 53.512C37.6158 54.04 37.0998 54.748 36.7878 55.636C36.4758 56.5 36.2958 57.436 36.2478 58.444C36.2238 59.068 36.2238 59.704 36.2478 60.352C36.2958 61.36 36.4758 62.308 36.7878 63.196C37.0998 64.06 37.6158 64.768 38.3358 65.32C39.0558 65.848 40.0158 66.112 41.2158 66.112ZM55.9283 68.848C55.6883 68.848 55.4843 68.776 55.3163 68.632C55.1723 68.464 55.1003 68.26 55.1003 68.02V50.992C55.1003 50.752 55.1723 50.548 55.3163 50.38C55.4843 50.212 55.6883 50.128 55.9283 50.128H57.5843C57.8243 50.128 58.0283 50.212 58.1963 50.38C58.3643 50.548 58.4483 50.752 58.4483 50.992V52.576C58.9283 51.76 59.5883 51.148 60.4283 50.74C61.2683 50.332 62.2883 50.128 63.4883 50.128H64.8923C65.1323 50.128 65.3243 50.212 65.4683 50.38C65.6363 50.524 65.7203 50.716 65.7203 50.956V52.432C65.7203 52.672 65.6363 52.864 65.4683 53.008C65.3243 53.152 65.1323 53.224 64.8923 53.224H62.7323C61.4363 53.224 60.4163 53.608 59.6723 54.376C58.9283 55.12 58.5563 56.14 58.5563 57.436V68.02C58.5563 68.26 58.4723 68.464 58.3043 68.632C58.1363 68.776 57.9323 68.848 57.6923 68.848H55.9283ZM75.9125 69.208C73.4165 69.208 71.4365 68.452 69.9725 66.94C68.5085 65.404 67.7045 63.316 67.5605 60.676C67.5365 60.364 67.5245 59.968 67.5245 59.488C67.5245 58.984 67.5365 58.576 67.5605 58.264C67.6565 56.56 68.0525 55.072 68.7485 53.8C69.4445 52.504 70.3925 51.508 71.5925 50.812C72.8165 50.116 74.2445 49.768 75.8765 49.768C77.7005 49.768 79.2245 50.152 80.4485 50.92C81.6965 51.688 82.6445 52.78 83.2925 54.196C83.9405 55.612 84.2645 57.268 84.2645 59.164V59.776C84.2645 60.04 84.1805 60.244 84.0125 60.388C83.8685 60.532 83.6765 60.604 83.4365 60.604H70.9805C70.9805 60.628 70.9805 60.676 70.9805 60.748C70.9805 60.82 70.9805 60.88 70.9805 60.928C71.0285 61.912 71.2445 62.836 71.6285 63.7C72.0125 64.54 72.5645 65.224 73.2845 65.752C74.0285 66.28 74.8925 66.544 75.8765 66.544C76.7405 66.544 77.4605 66.412 78.0365 66.148C78.6125 65.884 79.0805 65.596 79.4405 65.284C79.8005 64.948 80.0405 64.684 80.1605 64.492C80.3765 64.204 80.5445 64.036 80.6645 63.988C80.7845 63.916 80.9765 63.88 81.2405 63.88H83.0045C83.2205 63.88 83.4005 63.952 83.5445 64.096C83.7125 64.216 83.7845 64.396 83.7605 64.636C83.7365 64.996 83.5445 65.44 83.1845 65.968C82.8245 66.472 82.3085 66.976 81.6365 67.48C80.9885 67.984 80.1725 68.404 79.1885 68.74C78.2285 69.052 77.1365 69.208 75.9125 69.208ZM70.9805 58.12H80.8445V58.012C80.8445 56.932 80.6405 55.972 80.2325 55.132C79.8485 54.292 79.2845 53.632 78.5405 53.152C77.7965 52.648 76.9085 52.396 75.8765 52.396C74.8445 52.396 73.9565 52.648 73.2125 53.152C72.4925 53.632 71.9405 54.292 71.5565 55.132C71.1725 55.972 70.9805 56.932 70.9805 58.012V58.12ZM95.409 69.208C94.089 69.208 92.949 68.98 91.989 68.524C91.029 68.044 90.237 67.408 89.613 66.616C89.013 65.8 88.557 64.876 88.245 63.844C87.957 62.812 87.789 61.72 87.741 60.568C87.717 60.184 87.705 59.824 87.705 59.488C87.705 59.152 87.717 58.792 87.741 58.408C87.789 57.28 87.957 56.2 88.245 55.168C88.557 54.136 89.013 53.212 89.613 52.396C90.237 51.58 91.029 50.944 91.989 50.488C92.949 50.008 94.089 49.768 95.409 49.768C96.825 49.768 98.001 50.02 98.937 50.524C99.873 51.028 100.641 51.652 101.241 52.396V44.116C101.241 43.876 101.313 43.684 101.457 43.54C101.625 43.372 101.829 43.288 102.069 43.288H103.797C104.037 43.288 104.229 43.372 104.373 43.54C104.541 43.684 104.625 43.876 104.625 44.116V68.02C104.625 68.26 104.541 68.464 104.373 68.632C104.229 68.776 104.037 68.848 103.797 68.848H102.177C101.913 68.848 101.709 68.776 101.565 68.632C101.421 68.464 101.349 68.26 101.349 68.02V66.508C100.749 67.276 99.969 67.924 99.009 68.452C98.049 68.956 96.849 69.208 95.409 69.208ZM96.165 66.292C97.365 66.292 98.325 66.016 99.045 65.464C99.765 64.912 100.305 64.216 100.665 63.376C101.025 62.512 101.217 61.636 101.241 60.748C101.265 60.364 101.277 59.908 101.277 59.38C101.277 58.828 101.265 58.36 101.241 57.976C101.217 57.136 101.013 56.308 100.629 55.492C100.269 54.676 99.717 54.004 98.973 53.476C98.253 52.948 97.317 52.684 96.165 52.684C94.941 52.684 93.969 52.96 93.249 53.512C92.529 54.04 92.013 54.748 91.701 55.636C91.389 56.5 91.209 57.436 91.161 58.444C91.137 59.14 91.137 59.836 91.161 60.532C91.209 61.54 91.389 62.488 91.701 63.376C92.013 64.24 92.529 64.948 93.249 65.5C93.969 66.028 94.941 66.292 96.165 66.292ZM110.807 68.848C110.567 68.848 110.363 68.776 110.195 68.632C110.051 68.464 109.979 68.26 109.979 68.02V50.956C109.979 50.716 110.051 50.524 110.195 50.38C110.363 50.212 110.567 50.128 110.807 50.128H112.535C112.775 50.128 112.967 50.212 113.111 50.38C113.279 50.524 113.363 50.716 113.363 50.956V68.02C113.363 68.26 113.279 68.464 113.111 68.632C112.967 68.776 112.775 68.848 112.535 68.848H110.807ZM110.519 46.636C110.279 46.636 110.075 46.564 109.907 46.42C109.763 46.252 109.691 46.048 109.691 45.808V43.864C109.691 43.624 109.763 43.42 109.907 43.252C110.075 43.084 110.279 43 110.519 43H112.787C113.027 43 113.231 43.084 113.399 43.252C113.567 43.42 113.651 43.624 113.651 43.864V45.808C113.651 46.048 113.567 46.252 113.399 46.42C113.231 46.564 113.027 46.636 112.787 46.636H110.519ZM126.186 69.208C123.69 69.208 121.71 68.452 120.246 66.94C118.782 65.404 117.978 63.316 117.834 60.676C117.81 60.364 117.798 59.968 117.798 59.488C117.798 58.984 117.81 58.576 117.834 58.264C117.93 56.56 118.326 55.072 119.022 53.8C119.718 52.504 120.666 51.508 121.866 50.812C123.09 50.116 124.518 49.768 126.15 49.768C127.974 49.768 129.498 50.152 130.722 50.92C131.97 51.688 132.918 52.78 133.566 54.196C134.214 55.612 134.538 57.268 134.538 59.164V59.776C134.538 60.04 134.454 60.244 134.286 60.388C134.142 60.532 133.95 60.604 133.71 60.604H121.254C121.254 60.628 121.254 60.676 121.254 60.748C121.254 60.82 121.254 60.88 121.254 60.928C121.302 61.912 121.518 62.836 121.902 63.7C122.286 64.54 122.838 65.224 123.558 65.752C124.302 66.28 125.166 66.544 126.15 66.544C127.014 66.544 127.734 66.412 128.31 66.148C128.886 65.884 129.354 65.596 129.714 65.284C130.074 64.948 130.314 64.684 130.434 64.492C130.65 64.204 130.818 64.036 130.938 63.988C131.058 63.916 131.25 63.88 131.514 63.88H133.278C133.494 63.88 133.674 63.952 133.818 64.096C133.986 64.216 134.058 64.396 134.034 64.636C134.01 64.996 133.818 65.44 133.458 65.968C133.098 66.472 132.582 66.976 131.91 67.48C131.262 67.984 130.446 68.404 129.462 68.74C128.502 69.052 127.41 69.208 126.186 69.208ZM121.254 58.12H131.118V58.012C131.118 56.932 130.914 55.972 130.506 55.132C130.122 54.292 129.558 53.632 128.814 53.152C128.07 52.648 127.182 52.396 126.15 52.396C125.118 52.396 124.23 52.648 123.486 53.152C122.766 53.632 122.214 54.292 121.83 55.132C121.446 55.972 121.254 56.932 121.254 58.012V58.12ZM139.67 68.848C139.43 68.848 139.226 68.776 139.058 68.632C138.914 68.464 138.842 68.26 138.842 68.02V50.956C138.842 50.716 138.914 50.524 139.058 50.38C139.226 50.212 139.43 50.128 139.67 50.128H141.362C141.602 50.128 141.794 50.212 141.938 50.38C142.106 50.524 142.19 50.716 142.19 50.956V52.54C142.814 51.724 143.594 51.064 144.53 50.56C145.49 50.032 146.714 49.768 148.202 49.768C149.762 49.768 151.082 50.116 152.162 50.812C153.266 51.484 154.094 52.432 154.646 53.656C155.222 54.856 155.51 56.26 155.51 57.868V68.02C155.51 68.26 155.426 68.464 155.258 68.632C155.114 68.776 154.922 68.848 154.682 68.848H152.882C152.642 68.848 152.438 68.776 152.27 68.632C152.126 68.464 152.054 68.26 152.054 68.02V58.048C152.054 56.368 151.646 55.06 150.83 54.124C150.014 53.164 148.814 52.684 147.23 52.684C145.742 52.684 144.542 53.164 143.63 54.124C142.742 55.06 142.298 56.368 142.298 58.048V68.02C142.298 68.26 142.214 68.464 142.046 68.632C141.902 68.776 141.71 68.848 141.47 68.848H139.67ZM167.736 68.848C166.392 68.848 165.3 68.596 164.46 68.092C163.62 67.564 163.008 66.832 162.624 65.896C162.24 64.936 162.048 63.808 162.048 62.512V53.008H159.24C159 53.008 158.796 52.936 158.628 52.792C158.484 52.624 158.412 52.42 158.412 52.18V50.956C158.412 50.716 158.484 50.524 158.628 50.38C158.796 50.212 159 50.128 159.24 50.128H162.048V44.116C162.048 43.876 162.12 43.684 162.264 43.54C162.432 43.372 162.636 43.288 162.876 43.288H164.568C164.808 43.288 165 43.372 165.144 43.54C165.312 43.684 165.396 43.876 165.396 44.116V50.128H169.86C170.124 50.128 170.328 50.212 170.472 50.38C170.616 50.524 170.688 50.716 170.688 50.956V52.18C170.688 52.42 170.616 52.624 170.472 52.792C170.328 52.936 170.124 53.008 169.86 53.008H165.396V62.26C165.396 63.388 165.588 64.276 165.972 64.924C166.356 65.572 167.04 65.896 168.024 65.896H170.22C170.46 65.896 170.652 65.98 170.796 66.148C170.964 66.292 171.048 66.484 171.048 66.724V68.02C171.048 68.26 170.964 68.464 170.796 68.632C170.652 68.776 170.46 68.848 170.22 68.848H167.736ZM180.971 69.208C179.627 69.208 178.475 69.04 177.515 68.704C176.555 68.368 175.775 67.96 175.175 67.48C174.575 67 174.119 66.52 173.807 66.04C173.519 65.56 173.363 65.176 173.339 64.888C173.315 64.624 173.399 64.42 173.591 64.276C173.783 64.132 173.975 64.06 174.167 64.06H175.787C175.907 64.06 176.003 64.084 176.075 64.132C176.171 64.156 176.291 64.252 176.435 64.42C176.747 64.756 177.095 65.092 177.479 65.428C177.863 65.764 178.331 66.04 178.883 66.256C179.459 66.472 180.167 66.58 181.007 66.58C182.231 66.58 183.239 66.352 184.031 65.896C184.823 65.416 185.219 64.72 185.219 63.808C185.219 63.208 185.051 62.728 184.715 62.368C184.403 62.008 183.827 61.684 182.987 61.396C182.171 61.108 181.043 60.808 179.603 60.496C178.163 60.16 177.023 59.752 176.183 59.272C175.343 58.768 174.743 58.18 174.383 57.508C174.023 56.812 173.843 56.032 173.843 55.168C173.843 54.28 174.107 53.428 174.635 52.612C175.163 51.772 175.931 51.088 176.939 50.56C177.971 50.032 179.255 49.768 180.791 49.768C182.039 49.768 183.107 49.924 183.995 50.236C184.883 50.548 185.615 50.944 186.191 51.424C186.767 51.88 187.199 52.336 187.487 52.792C187.775 53.248 187.931 53.632 187.955 53.944C187.979 54.184 187.907 54.388 187.739 54.556C187.571 54.7 187.379 54.772 187.163 54.772H185.651C185.483 54.772 185.339 54.736 185.219 54.664C185.123 54.592 185.027 54.508 184.931 54.412C184.691 54.1 184.403 53.788 184.067 53.476C183.755 53.164 183.335 52.912 182.807 52.72C182.303 52.504 181.631 52.396 180.791 52.396C179.591 52.396 178.691 52.648 178.091 53.152C177.491 53.656 177.191 54.292 177.191 55.06C177.191 55.516 177.323 55.924 177.587 56.284C177.851 56.644 178.355 56.968 179.099 57.256C179.843 57.544 180.947 57.856 182.411 58.192C183.995 58.504 185.243 58.924 186.155 59.452C187.067 59.98 187.715 60.592 188.099 61.288C188.483 61.984 188.675 62.788 188.675 63.7C188.675 64.708 188.387 65.632 187.811 66.472C187.235 67.312 186.371 67.984 185.219 68.488C184.067 68.968 182.651 69.208 180.971 69.208Z" fill="#646464"/>
</svg>
