<svg width="20" height="19" viewBox="0 0 20 19" fill="none" xmlns="http://www.w3.org/2000/svg">
<path d="M8.89 0.336442C9.19414 0.133465 9.54811 0.0177521 9.91342 0.00188443C10.2787 -0.0139833 10.6414 0.0706013 10.962 0.246442L11.109 0.336442L19.109 5.66944C19.3596 5.83646 19.5693 6.05792 19.7224 6.31731C19.8754 6.57669 19.968 6.8673 19.993 7.16744L20 7.33344V16.7984C20.0002 17.303 19.8096 17.789 19.4665 18.159C19.1234 18.529 18.6532 18.7556 18.15 18.7934L18 18.7984H2C1.49542 18.7986 1.00943 18.608 0.639452 18.2649C0.269471 17.9219 0.0428433 17.4516 0.00500011 16.9484L0 16.7984V7.33344C5.19133e-06 7.03234 0.0679945 6.73513 0.198897 6.46398C0.329799 6.19282 0.520235 5.95472 0.756 5.76744L0.891 5.66944L8.89 0.336442ZM18 8.66644L10.832 13.4464C10.5856 13.6107 10.2961 13.6983 10 13.6983C9.70388 13.6983 9.41439 13.6107 9.168 13.4464L2 8.66544V16.7984H18V8.66644ZM10 2.00044L2.803 6.79844L10 11.5964L17.197 6.79844L10 2.00044Z" fill="white"/>
</svg>
