<svg width="20" height="20" viewBox="0 0 20 20" fill="none" xmlns="http://www.w3.org/2000/svg">
<path d="M9.75159 0C0.70765 0 0 0.708141 0 9.75159V9.92841C0 18.9719 0.707651 19.68 9.75159 19.68H9.92841C18.9723 19.68 19.68 18.9719 19.68 9.92841V9.84C19.68 0.714384 18.9656 0 9.84 0H9.75159ZM15.7411 2.952C16.2848 2.95052 16.7265 3.38946 16.728 3.93312C16.7295 4.47678 16.2905 4.91852 15.7469 4.92C15.2032 4.92148 14.7615 4.48254 14.76 3.93888C14.7585 3.39522 15.1975 2.95348 15.7411 2.952ZM9.82847 4.92C12.5453 4.9136 14.7536 7.11164 14.76 9.82847C14.7664 12.5453 12.5684 14.7536 9.85153 14.76C7.13471 14.7664 4.9264 12.5684 4.92 9.85153C4.9136 7.13471 7.11164 4.9264 9.82847 4.92ZM9.83327 6.888C8.20278 6.89194 6.88406 8.2172 6.888 9.84769C6.89194 11.4777 8.21673 12.7959 9.84673 12.792C11.4772 12.7881 12.7959 11.4633 12.792 9.83327C12.7881 8.20278 11.4633 6.88406 9.83327 6.888Z" fill="white"/>
</svg>
