<svg width="42" height="42" viewBox="0 0 42 42" fill="none" xmlns="http://www.w3.org/2000/svg">
<path d="M22.2373 4.01274C21.9091 3.68467 21.464 3.50037 21 3.50037C20.536 3.50037 20.0909 3.68467 19.7628 4.01274L12.7628 11.0127C12.4974 11.2781 12.3244 11.6217 12.2693 11.9929C12.2141 12.3641 12.2798 12.7432 12.4565 13.0742C12.8888 13.8845 13.5643 14.4305 14.224 14.8015L9.26275 19.7627C8.93468 20.0909 8.75038 20.536 8.75038 21C8.75038 21.464 8.93468 21.9091 9.26275 22.2372C10.0993 23.0737 11.1563 23.5847 12.1223 23.9032L7.51275 28.5127C7.30146 28.7243 7.14788 28.9864 7.06665 29.2741C6.98542 29.5618 6.97926 29.8655 7.04876 30.1563C7.11825 30.4471 7.26107 30.7152 7.46362 30.9351C7.66616 31.155 7.92166 31.3194 8.20575 31.4125C9.41325 31.8097 10.661 32.0915 11.907 32.34C13.272 32.6147 14.9625 32.886 16.8858 33.061L15.8393 36.197C15.7516 36.4601 15.7278 36.7402 15.7697 37.0143C15.8115 37.2884 15.918 37.5487 16.0802 37.7736C16.2423 37.9985 16.4557 38.1816 16.7025 38.3079C16.9494 38.4342 17.2227 38.5001 17.5 38.5H24.5C24.7773 38.5001 25.0506 38.4342 25.2975 38.3079C25.5443 38.1816 25.7577 37.9985 25.9199 37.7736C26.082 37.5487 26.1885 37.2884 26.2303 37.0143C26.2722 36.7402 26.2484 36.4601 26.1608 36.197L25.1143 33.061C27.0393 32.886 28.7298 32.6147 30.093 32.3417C31.339 32.0915 32.5955 31.8097 33.803 31.4107C34.0861 31.3165 34.3404 31.1514 34.5417 30.9312C34.743 30.7109 34.8846 30.4429 34.9532 30.1525C35.0218 29.8622 35.0149 29.5591 34.9334 29.2721C34.8518 28.9851 34.6983 28.7237 34.4873 28.5127L29.8778 23.9032C30.8438 23.5865 31.9008 23.0737 32.7373 22.2372C33.0653 21.9091 33.2496 21.464 33.2496 21C33.2496 20.536 33.0653 20.0909 32.7373 19.7627L27.776 14.8015C28.4358 14.4305 29.1113 13.8845 29.5435 13.0742C29.7202 12.7432 29.7859 12.3641 29.7307 11.9929C29.6756 11.6217 29.5026 11.2781 29.2373 11.0127L22.2373 4.01274Z" fill="white"/>
</svg>
