<svg width="42" height="42" viewBox="0 0 42 42" fill="none" xmlns="http://www.w3.org/2000/svg">
<path fill-rule="evenodd" clip-rule="evenodd" d="M13.5573 9.78605C15.4882 7.58319 17.6417 5.58575 19.9832 3.82555C20.28 3.61373 20.6354 3.49988 21 3.49988C21.3646 3.49988 21.72 3.61373 22.0168 3.82555C24.3529 5.59227 26.5057 7.58912 28.4428 9.78605C32.522 14.448 35 19.404 35 24.5C35 28.2131 33.525 31.774 30.8995 34.3995C28.274 37.0251 24.713 38.5 21 38.5C17.287 38.5 13.726 37.0251 11.1005 34.3995C8.475 31.774 7 28.2131 7 24.5C7 19.404 9.47625 14.4498 13.5573 9.78605ZM21.0087 36.75C22.7232 36.75 24.3675 36.069 25.5798 34.8566C26.7922 33.6443 27.4733 32 27.4733 30.2855C27.4733 24.7433 21.0087 20.125 21.0087 20.125C21.0087 20.125 14.5425 24.7433 14.5425 30.2855C14.5425 32 15.2236 33.6443 16.4359 34.8566C17.6482 36.069 19.2925 36.75 21.007 36.75H21.0087Z" fill="white"/>
</svg>
