<svg width="18" height="34" viewBox="0 0 18 34" fill="none" xmlns="http://www.w3.org/2000/svg">
<path d="M12.384 33.6001C12.032 33.6001 11.744 33.4881 11.52 33.2641C11.328 33.0401 11.232 32.7681 11.232 32.4481V7.5841L3.93601 13.2001C3.64801 13.3921 3.36001 13.4721 3.07201 13.4401C2.78401 13.3761 2.52801 13.2001 2.30401 12.9121L0.288013 10.3201C0.0960127 10.0321 0.0160128 9.7281 0.0480128 9.4081C0.112013 9.0881 0.288013 8.8321 0.576013 8.6401L11.328 0.336097C11.52 0.176097 11.712 0.0800962 11.904 0.0480947C12.096 0.0160952 12.304 9.53674e-05 12.528 9.53674e-05H16.752C17.072 9.53674e-05 17.344 0.112096 17.568 0.336097C17.792 0.560096 17.904 0.832095 17.904 1.15209V32.4481C17.904 32.7681 17.792 33.0401 17.568 33.2641C17.344 33.4881 17.072 33.6001 16.752 33.6001H12.384Z" fill="#C5151D"/>
</svg>
