<svg width="42" height="42" viewBox="0 0 42 42" fill="none" xmlns="http://www.w3.org/2000/svg">
<path fill-rule="evenodd" clip-rule="evenodd" d="M26.2499 5.24995C28.1065 5.24995 29.8869 5.98745 31.1997 7.3002C32.5124 8.61296 33.2499 10.3934 33.2499 12.2499V14.2204C35.0046 14.6893 36.5086 15.8214 37.4444 17.378C38.3802 18.9345 38.6748 20.7938 38.2659 22.5634C37.857 24.333 36.7766 25.8746 35.2527 26.8627C33.7288 27.8509 31.8807 28.2085 30.0982 27.8599C29.873 27.8142 29.641 27.8133 29.4154 27.8572C29.1898 27.9012 28.9751 27.9891 28.7835 28.116C28.5919 28.2429 28.4272 28.4063 28.2988 28.5969C28.1703 28.7875 28.0807 29.0015 28.0349 29.2267C27.9892 29.4519 27.9883 29.6839 28.0322 29.9095C28.0762 30.1351 28.1641 30.3498 28.291 30.5414C28.4179 30.733 28.5813 30.8977 28.7719 31.0261C28.9625 31.1546 29.1765 31.2442 29.4017 31.2899C30.6059 31.5352 31.8439 31.5672 33.0592 31.3844C32.7593 32.6304 32.1233 33.7701 31.2204 34.6795C30.3176 35.589 29.1825 36.2333 27.9388 36.5423C26.6951 36.8512 25.3905 36.8131 24.167 36.4319C22.9435 36.0507 21.8481 35.3411 20.9999 34.3804C20.1517 35.3407 19.0564 36.0498 17.8331 36.4307C16.6099 36.8116 15.3056 36.8496 14.0622 36.5406C12.8188 36.2317 11.684 35.5876 10.7813 34.6785C9.87861 33.7693 9.24257 32.63 8.94244 31.3844C10.1572 31.567 11.3945 31.535 12.5982 31.2899C12.8234 31.2442 13.0374 31.1546 13.228 31.0261C13.4186 30.8977 13.582 30.733 13.7089 30.5414C13.8358 30.3498 13.9237 30.1351 13.9677 29.9095C14.0116 29.6839 14.0107 29.4519 13.9649 29.2267C13.9192 29.0015 13.8296 28.7875 13.7011 28.5969C13.5727 28.4063 13.408 28.2429 13.2164 28.116C13.0248 27.9891 12.8101 27.9012 12.5845 27.8572C12.3589 27.8133 12.1269 27.8142 11.9017 27.8599C10.8587 28.0731 9.78074 28.0456 8.74994 27.7794C7.24802 27.3902 5.91788 26.5132 4.96832 25.2862C4.01876 24.0591 3.50354 22.5515 3.50354 20.9999C3.50354 19.4484 4.01876 17.9408 4.96832 16.7137C5.91788 15.4867 7.24802 14.6097 8.74994 14.2204V12.2499C8.74985 10.8281 9.18278 9.43986 9.99111 8.27009C10.7994 7.10032 11.9448 6.20444 13.2749 5.70169C14.6049 5.19894 16.0565 5.11314 17.4365 5.45573C18.8165 5.79832 20.0595 6.55303 20.9999 7.61945C21.6569 6.87468 22.4648 6.27822 23.3699 5.86969C24.2751 5.46115 25.2568 5.24989 26.2499 5.24995ZM20.9999 10.4999C20.5713 10.5 20.1576 10.6574 19.8373 10.9422C19.517 11.227 19.3123 11.6195 19.2622 12.0452L19.2499 12.2499V20.1862C18.1857 19.5724 16.9786 19.2495 15.7499 19.2499C15.2858 19.2499 14.8407 19.4343 14.5125 19.7625C14.1843 20.0907 13.9999 20.5358 13.9999 20.9999C13.9999 21.4641 14.1843 21.9092 14.5125 22.2374C14.8407 22.5656 15.2858 22.7499 15.7499 22.7499C16.633 22.7497 17.4834 23.0832 18.1309 23.6836C18.7784 24.284 19.175 25.1069 19.2412 25.9874L19.2499 26.2499V29.7499C19.2504 30.196 19.4212 30.625 19.7274 30.9493C20.0336 31.2737 20.4521 31.4689 20.8974 31.495C21.3427 31.5211 21.7811 31.3763 22.1231 31.09C22.4652 30.8037 22.685 30.3976 22.7377 29.9547L22.7499 29.7499V26.2395C22.7527 25.313 23.1227 24.4255 23.7788 23.7714C24.4349 23.1173 25.3235 22.7499 26.2499 22.7499C26.7141 22.7499 27.1592 22.5656 27.4874 22.2374C27.8156 21.9092 27.9999 21.4641 27.9999 20.9999C27.9999 20.5358 27.8156 20.0907 27.4874 19.7625C27.1592 19.4343 26.7141 19.2499 26.2499 19.2499C25.1726 19.2492 24.1096 19.4971 23.1437 19.9744L22.7499 20.1862V12.2499C22.7499 11.7858 22.5656 11.3407 22.2374 11.0125C21.9092 10.6843 21.4641 10.4999 20.9999 10.4999Z" fill="white"/>
</svg>
