<svg width="42" height="42" viewBox="0 0 42 42" fill="none" xmlns="http://www.w3.org/2000/svg">
<path fill-rule="evenodd" clip-rule="evenodd" d="M19.6857 4.06169C20.0557 3.75643 20.5204 3.58948 21 3.58948C21.4796 3.58948 21.9443 3.75643 22.3143 4.06169C24.8293 6.15243 27.1334 8.48466 29.1935 11.0249C32.0635 14.5932 35 19.4354 35 24.4999C35 28.213 33.525 31.7739 30.8995 34.3994C28.274 37.0249 24.713 38.4999 21 38.4999C17.287 38.4999 13.726 37.0249 11.1005 34.3994C8.475 31.7739 7 28.213 7 24.4999C7 19.4354 9.9365 14.5932 12.8065 11.0232C14.8661 8.48361 17.1714 6.15196 19.6857 4.06169Z" fill="white"/>
</svg>
