<svg width="315" height="27" viewBox="0 0 315 27" fill="none" xmlns="http://www.w3.org/2000/svg">
<path d="M0.719986 26.136C0.527986 26.136 0.359986 26.064 0.215986 25.92C0.0719863 25.776 -1.36644e-05 25.608 -1.36644e-05 25.416C-1.36644e-05 25.296 0.0239863 25.164 0.0719863 25.02L9.17999 1.65599C9.27599 1.41598 9.39599 1.23598 9.53999 1.11598C9.70799 0.995985 9.93599 0.935985 10.224 0.935985H11.448C11.736 0.935985 11.952 0.995985 12.096 1.11598C12.264 1.23598 12.396 1.41598 12.492 1.65599L21.6 25.02C21.648 25.164 21.672 25.296 21.672 25.416C21.672 25.608 21.6 25.776 21.456 25.92C21.312 26.064 21.144 26.136 20.952 26.136H20.232C19.992 26.136 19.812 26.076 19.692 25.956C19.572 25.812 19.488 25.692 19.44 25.596L17.208 19.836H4.46399L2.23199 25.596C2.20799 25.692 2.12399 25.812 1.97999 25.956C1.85999 26.076 1.67999 26.136 1.43999 26.136H0.719986ZM5.32799 17.676H16.344L10.836 3.49199L5.32799 17.676ZM33.746 26.496C32.258 26.496 31.022 26.232 30.038 25.704C29.078 25.152 28.298 24.468 27.698 23.652V25.344C27.698 25.584 27.626 25.776 27.482 25.92C27.338 26.064 27.146 26.136 26.906 26.136H26.294C26.054 26.136 25.862 26.064 25.718 25.92C25.574 25.776 25.502 25.584 25.502 25.344V1.36799C25.502 1.12799 25.574 0.935985 25.718 0.791984C25.862 0.647985 26.054 0.575985 26.294 0.575985H26.906C27.146 0.575985 27.338 0.647985 27.482 0.791984C27.626 0.935985 27.698 1.12799 27.698 1.36799V9.89999C28.298 9.10799 29.078 8.43599 30.038 7.88399C31.022 7.33199 32.258 7.05599 33.746 7.05599C35.162 7.05599 36.35 7.30799 37.31 7.81199C38.27 8.31599 39.05 8.98799 39.65 9.82799C40.25 10.668 40.694 11.604 40.982 12.636C41.2701 13.668 41.4261 14.712 41.4501 15.768C41.474 16.128 41.486 16.464 41.486 16.776C41.486 17.088 41.474 17.424 41.4501 17.784C41.4261 18.84 41.2701 19.884 40.982 20.916C40.694 21.948 40.25 22.884 39.65 23.724C39.05 24.564 38.27 25.236 37.31 25.74C36.35 26.244 35.162 26.496 33.746 26.496ZM33.53 24.408C34.946 24.408 36.062 24.096 36.878 23.472C37.694 22.848 38.282 22.032 38.642 21.024C39.002 20.016 39.206 18.936 39.254 17.784C39.278 17.112 39.278 16.44 39.254 15.768C39.206 14.616 39.002 13.536 38.642 12.528C38.282 11.52 37.694 10.704 36.878 10.08C36.062 9.45599 34.946 9.14399 33.53 9.14399C32.21 9.14399 31.118 9.45599 30.254 10.08C29.414 10.704 28.778 11.484 28.346 12.42C27.938 13.356 27.722 14.304 27.698 15.264C27.674 15.624 27.662 16.092 27.662 16.668C27.662 17.244 27.674 17.712 27.698 18.072C27.746 19.056 27.962 20.04 28.346 21.024C28.754 21.984 29.378 22.788 30.218 23.436C31.058 24.084 32.162 24.408 33.53 24.408ZM53.4769 26.496C51.7489 26.496 50.2969 26.136 49.1209 25.416C47.9689 24.696 47.0809 23.712 46.4569 22.464C45.8569 21.216 45.5329 19.824 45.4849 18.288C45.4609 17.928 45.4489 17.424 45.4489 16.776C45.4489 16.128 45.4609 15.624 45.4849 15.264C45.5329 13.704 45.8569 12.312 46.4569 11.088C47.0809 9.83999 47.9689 8.85599 49.1209 8.13599C50.2969 7.41599 51.7489 7.05599 53.4769 7.05599C55.2049 7.05599 56.6449 7.41599 57.7969 8.13599C58.9729 8.85599 59.8609 9.83999 60.4609 11.088C61.0849 12.312 61.4209 13.704 61.4689 15.264C61.4929 15.624 61.5049 16.128 61.5049 16.776C61.5049 17.424 61.4929 17.928 61.4689 18.288C61.4209 19.824 61.0849 21.216 60.4609 22.464C59.8609 23.712 58.9729 24.696 57.7969 25.416C56.6449 26.136 55.2049 26.496 53.4769 26.496ZM53.4769 24.408C55.1569 24.408 56.5249 23.868 57.5809 22.788C58.6369 21.708 59.2009 20.148 59.2729 18.108C59.2969 17.748 59.3089 17.304 59.3089 16.776C59.3089 16.248 59.2969 15.804 59.2729 15.444C59.2009 13.38 58.6369 11.82 57.5809 10.764C56.5249 9.68399 55.1569 9.14399 53.4769 9.14399C51.7969 9.14399 50.4289 9.68399 49.3729 10.764C48.3169 11.82 47.7529 13.38 47.6809 15.444C47.6569 15.804 47.6449 16.248 47.6449 16.776C47.6449 17.304 47.6569 17.748 47.6809 18.108C47.7529 20.148 48.3169 21.708 49.3729 22.788C50.4289 23.868 51.7969 24.408 53.4769 24.408ZM73.4431 26.496C71.8111 26.496 70.4551 26.148 69.3751 25.452C68.3191 24.732 67.5271 23.76 66.9991 22.536C66.4951 21.312 66.2431 19.944 66.2431 18.432V8.20799C66.2431 7.96799 66.3151 7.77599 66.4591 7.63199C66.6031 7.48799 66.7951 7.41598 67.0351 7.41598H67.6471C67.8871 7.41598 68.0791 7.48799 68.2231 7.63199C68.3671 7.77599 68.4391 7.96799 68.4391 8.20799V18.252C68.4391 22.356 70.2271 24.408 73.8031 24.408C75.5071 24.408 76.8751 23.868 77.9071 22.788C78.9391 21.684 79.4551 20.172 79.4551 18.252V8.20799C79.4551 7.96799 79.5271 7.77599 79.6711 7.63199C79.8151 7.48799 80.0071 7.41598 80.2471 7.41598H80.8591C81.0991 7.41598 81.2911 7.48799 81.4351 7.63199C81.5791 7.77599 81.6511 7.96799 81.6511 8.20799V25.344C81.6511 25.584 81.5791 25.776 81.4351 25.92C81.2911 26.064 81.0991 26.136 80.8591 26.136H80.2471C80.0071 26.136 79.8151 26.064 79.6711 25.92C79.5271 25.776 79.4551 25.584 79.4551 25.344V23.652C78.8071 24.492 78.0271 25.176 77.1151 25.704C76.2271 26.232 75.0031 26.496 73.4431 26.496ZM93.7817 26.136C92.5337 26.136 91.5497 25.872 90.8297 25.344C90.1097 24.816 89.6057 24.096 89.3177 23.184C89.0297 22.272 88.8857 21.252 88.8857 20.124V9.50399H86.0777C85.8377 9.50399 85.6457 9.43199 85.5017 9.28799C85.3577 9.14399 85.2857 8.95199 85.2857 8.71199V8.20799C85.2857 7.96799 85.3577 7.77599 85.5017 7.63199C85.6457 7.48799 85.8377 7.41598 86.0777 7.41598H88.8857V1.36799C88.8857 1.12799 88.9577 0.935985 89.1017 0.791984C89.2457 0.647985 89.4377 0.575985 89.6777 0.575985H90.2897C90.5297 0.575985 90.7217 0.647985 90.8657 0.791984C91.0097 0.935985 91.0817 1.12799 91.0817 1.36799V7.41598H95.5457C95.7857 7.41598 95.9777 7.48799 96.1217 7.63199C96.2657 7.77599 96.3377 7.96799 96.3377 8.20799V8.71199C96.3377 8.95199 96.2657 9.14399 96.1217 9.28799C95.9777 9.43199 95.7857 9.50399 95.5457 9.50399H91.0817V19.98C91.0817 21.252 91.2857 22.248 91.6937 22.968C92.1257 23.688 92.8817 24.048 93.9617 24.048H95.9057C96.1457 24.048 96.3377 24.12 96.4817 24.264C96.6257 24.408 96.6977 24.6 96.6977 24.84V25.344C96.6977 25.584 96.6257 25.776 96.4817 25.92C96.3377 26.064 96.1457 26.136 95.9057 26.136H93.7817Z" fill="black"/>
<path d="M110.456 26.136C110.216 26.136 110.012 26.052 109.844 25.884C109.676 25.716 109.592 25.512 109.592 25.272V1.83599C109.592 1.57199 109.676 1.35598 109.844 1.18799C110.012 1.01998 110.216 0.935985 110.456 0.935985H120.104C121.976 0.935985 123.608 1.23599 125 1.83599C126.392 2.41199 127.472 3.29999 128.24 4.49999C129.008 5.67599 129.392 7.15199 129.392 8.92799C129.392 10.728 129.008 12.216 128.24 13.392C127.472 14.544 126.392 15.408 125 15.984C123.608 16.56 121.976 16.848 120.104 16.848H114.74V25.272C114.74 25.512 114.656 25.716 114.488 25.884C114.344 26.052 114.14 26.136 113.876 26.136H110.456ZM114.668 12.852H119.924C121.316 12.852 122.384 12.528 123.128 11.88C123.872 11.208 124.244 10.224 124.244 8.92799C124.244 7.72799 123.896 6.76799 123.2 6.04799C122.504 5.30398 121.412 4.93198 119.924 4.93198H114.668V12.852ZM133.755 26.136C133.515 26.136 133.311 26.052 133.143 25.884C132.975 25.716 132.891 25.512 132.891 25.272V8.31599C132.891 8.05198 132.975 7.83599 133.143 7.66799C133.311 7.49999 133.515 7.41598 133.755 7.41598H136.671C136.911 7.41598 137.115 7.49999 137.283 7.66799C137.475 7.83599 137.571 8.05198 137.571 8.31599V9.79199C138.123 9.02399 138.831 8.43599 139.695 8.02799C140.583 7.61999 141.603 7.41598 142.755 7.41598H144.231C144.495 7.41598 144.699 7.49999 144.843 7.66799C145.011 7.83599 145.095 8.03999 145.095 8.27999V10.872C145.095 11.112 145.011 11.316 144.843 11.484C144.699 11.652 144.495 11.736 144.231 11.736H141.423C140.271 11.736 139.371 12.06 138.723 12.708C138.099 13.332 137.787 14.22 137.787 15.372V25.272C137.787 25.512 137.703 25.716 137.535 25.884C137.367 26.052 137.151 26.136 136.887 26.136H133.755ZM153.057 26.496C151.809 26.496 150.681 26.256 149.673 25.776C148.665 25.272 147.861 24.612 147.261 23.796C146.685 22.956 146.397 22.02 146.397 20.988C146.397 19.308 147.081 17.976 148.449 16.992C149.817 15.984 151.605 15.312 153.813 14.976L158.745 14.256V13.5C158.745 12.492 158.493 11.712 157.989 11.16C157.485 10.608 156.621 10.332 155.397 10.332C154.533 10.332 153.825 10.512 153.273 10.872C152.745 11.208 152.349 11.664 152.085 12.24C151.893 12.552 151.617 12.708 151.257 12.708H148.413C148.149 12.708 147.945 12.636 147.801 12.492C147.681 12.348 147.621 12.156 147.621 11.916C147.645 11.532 147.801 11.064 148.089 10.512C148.401 9.95999 148.857 9.43199 149.457 8.92799C150.081 8.39999 150.885 7.95599 151.869 7.59598C152.853 7.23599 154.041 7.05599 155.433 7.05599C156.945 7.05599 158.217 7.24799 159.249 7.63199C160.305 7.99199 161.145 8.48399 161.769 9.10799C162.393 9.73199 162.849 10.464 163.137 11.304C163.425 12.144 163.569 13.032 163.569 13.968V25.272C163.569 25.512 163.485 25.716 163.317 25.884C163.149 26.052 162.945 26.136 162.705 26.136H159.789C159.525 26.136 159.309 26.052 159.141 25.884C158.997 25.716 158.925 25.512 158.925 25.272V23.868C158.613 24.3 158.193 24.72 157.665 25.128C157.137 25.536 156.489 25.872 155.721 26.136C154.977 26.376 154.089 26.496 153.057 26.496ZM154.281 23.076C155.121 23.076 155.877 22.896 156.549 22.536C157.245 22.176 157.785 21.624 158.169 20.88C158.577 20.112 158.781 19.152 158.781 18V17.244L155.181 17.82C153.765 18.036 152.709 18.384 152.013 18.864C151.317 19.344 150.969 19.932 150.969 20.628C150.969 21.156 151.125 21.612 151.437 21.996C151.773 22.356 152.193 22.632 152.697 22.824C153.201 22.992 153.729 23.076 154.281 23.076ZM169.052 26.136C168.812 26.136 168.608 26.052 168.44 25.884C168.272 25.716 168.188 25.512 168.188 25.272V8.27999C168.188 8.03999 168.272 7.83599 168.44 7.66799C168.608 7.49999 168.812 7.41598 169.052 7.41598H172.004C172.244 7.41598 172.448 7.49999 172.616 7.66799C172.784 7.83599 172.868 8.03999 172.868 8.27999V9.75599C173.492 8.98799 174.284 8.35199 175.244 7.84799C176.228 7.31999 177.44 7.05599 178.88 7.05599C180.344 7.05599 181.616 7.39199 182.696 8.06399C183.776 8.71199 184.604 9.63599 185.18 10.836C185.78 12.036 186.08 13.476 186.08 15.156V25.272C186.08 25.512 185.996 25.716 185.828 25.884C185.66 26.052 185.456 26.136 185.216 26.136H182.048C181.808 26.136 181.604 26.052 181.436 25.884C181.268 25.716 181.184 25.512 181.184 25.272V15.372C181.184 13.98 180.836 12.888 180.14 12.096C179.468 11.304 178.484 10.908 177.188 10.908C175.94 10.908 174.944 11.304 174.2 12.096C173.456 12.888 173.084 13.98 173.084 15.372V25.272C173.084 25.512 173 25.716 172.832 25.884C172.664 26.052 172.46 26.136 172.22 26.136H169.052ZM198.933 26.496C197.013 26.496 195.393 26.16 194.073 25.488C192.777 24.816 191.781 23.868 191.085 22.644C190.413 21.42 190.029 19.992 189.933 18.36C189.909 17.928 189.897 17.4 189.897 16.776C189.897 16.152 189.909 15.624 189.933 15.192C190.029 13.536 190.425 12.108 191.121 10.908C191.841 9.68399 192.849 8.73599 194.145 8.06399C195.465 7.39199 197.061 7.05599 198.933 7.05599C200.805 7.05599 202.389 7.39199 203.685 8.06399C205.005 8.73599 206.013 9.68399 206.709 10.908C207.429 12.108 207.837 13.536 207.933 15.192C207.957 15.624 207.969 16.152 207.969 16.776C207.969 17.4 207.957 17.928 207.933 18.36C207.837 19.992 207.441 21.42 206.745 22.644C206.073 23.868 205.077 24.816 203.757 25.488C202.461 26.16 200.853 26.496 198.933 26.496ZM198.933 22.932C200.205 22.932 201.189 22.536 201.885 21.744C202.581 20.928 202.965 19.74 203.037 18.18C203.061 17.82 203.073 17.352 203.073 16.776C203.073 16.2 203.061 15.732 203.037 15.372C202.965 13.812 202.581 12.636 201.885 11.844C201.189 11.028 200.205 10.62 198.933 10.62C197.661 10.62 196.677 11.028 195.981 11.844C195.285 12.636 194.901 13.812 194.829 15.372C194.805 15.732 194.793 16.2 194.793 16.776C194.793 17.352 194.805 17.82 194.829 18.18C194.901 19.74 195.285 20.928 195.981 21.744C196.677 22.536 197.661 22.932 198.933 22.932ZM219.049 26.496C217.609 26.496 216.373 26.328 215.341 25.992C214.333 25.656 213.505 25.236 212.857 24.732C212.209 24.228 211.729 23.724 211.417 23.22C211.105 22.716 210.937 22.296 210.913 21.96C210.889 21.696 210.961 21.492 211.129 21.348C211.321 21.18 211.525 21.096 211.741 21.096H214.585C214.681 21.096 214.765 21.108 214.837 21.132C214.909 21.156 215.005 21.228 215.125 21.348C215.437 21.612 215.761 21.888 216.097 22.176C216.457 22.464 216.877 22.716 217.357 22.932C217.837 23.124 218.437 23.22 219.157 23.22C220.093 23.22 220.873 23.04 221.497 22.68C222.145 22.296 222.469 21.756 222.469 21.06C222.469 20.556 222.325 20.148 222.037 19.836C221.773 19.524 221.269 19.248 220.525 19.008C219.781 18.744 218.725 18.468 217.357 18.18C216.013 17.868 214.897 17.472 214.009 16.992C213.121 16.512 212.461 15.912 212.029 15.192C211.597 14.472 211.381 13.632 211.381 12.672C211.381 11.736 211.657 10.848 212.209 10.008C212.785 9.14399 213.625 8.43599 214.729 7.88399C215.857 7.33199 217.249 7.05599 218.905 7.05599C220.201 7.05599 221.329 7.22399 222.289 7.55999C223.249 7.87199 224.041 8.26799 224.665 8.74799C225.313 9.22799 225.805 9.71999 226.141 10.224C226.477 10.704 226.657 11.124 226.681 11.484C226.705 11.748 226.633 11.964 226.465 12.132C226.297 12.276 226.105 12.348 225.889 12.348H223.225C223.105 12.348 222.997 12.324 222.901 12.276C222.805 12.228 222.709 12.168 222.613 12.096C222.349 11.856 222.061 11.604 221.749 11.34C221.437 11.052 221.053 10.812 220.597 10.62C220.165 10.428 219.589 10.332 218.869 10.332C217.957 10.332 217.261 10.536 216.781 10.944C216.301 11.328 216.061 11.82 216.061 12.42C216.061 12.828 216.169 13.188 216.385 13.5C216.625 13.788 217.093 14.064 217.789 14.328C218.485 14.592 219.541 14.868 220.957 15.156C222.565 15.444 223.837 15.876 224.773 16.452C225.733 17.004 226.405 17.652 226.789 18.396C227.197 19.116 227.401 19.92 227.401 20.808C227.401 21.888 227.077 22.86 226.429 23.724C225.805 24.588 224.869 25.272 223.621 25.776C222.397 26.256 220.873 26.496 219.049 26.496ZM232.017 26.136C231.777 26.136 231.573 26.052 231.405 25.884C231.237 25.716 231.153 25.512 231.153 25.272V1.43998C231.153 1.19998 231.237 0.995985 231.405 0.827986C231.573 0.659985 231.777 0.575985 232.017 0.575985H235.221C235.485 0.575985 235.689 0.659985 235.833 0.827986C236.001 0.995985 236.085 1.19998 236.085 1.43998V9.64799C236.733 8.87999 237.525 8.25599 238.461 7.77598C239.397 7.29598 240.549 7.05599 241.917 7.05599C243.381 7.05599 244.653 7.39199 245.733 8.06399C246.837 8.71199 247.689 9.63599 248.289 10.836C248.889 12.036 249.189 13.476 249.189 15.156V25.272C249.189 25.512 249.105 25.716 248.937 25.884C248.769 26.052 248.565 26.136 248.325 26.136H245.085C244.845 26.136 244.641 26.052 244.473 25.884C244.305 25.716 244.221 25.512 244.221 25.272V15.372C244.221 13.98 243.873 12.888 243.177 12.096C242.505 11.304 241.521 10.908 240.225 10.908C238.977 10.908 237.969 11.304 237.201 12.096C236.457 12.888 236.085 13.98 236.085 15.372V25.272C236.085 25.512 236.001 25.716 235.833 25.884C235.689 26.052 235.485 26.136 235.221 26.136H232.017ZM259.194 26.496C257.946 26.496 256.818 26.256 255.81 25.776C254.802 25.272 253.998 24.612 253.398 23.796C252.822 22.956 252.534 22.02 252.534 20.988C252.534 19.308 253.218 17.976 254.586 16.992C255.954 15.984 257.742 15.312 259.95 14.976L264.882 14.256V13.5C264.882 12.492 264.63 11.712 264.126 11.16C263.622 10.608 262.758 10.332 261.534 10.332C260.67 10.332 259.962 10.512 259.41 10.872C258.882 11.208 258.486 11.664 258.222 12.24C258.03 12.552 257.754 12.708 257.394 12.708H254.55C254.286 12.708 254.082 12.636 253.938 12.492C253.818 12.348 253.758 12.156 253.758 11.916C253.782 11.532 253.938 11.064 254.226 10.512C254.538 9.95999 254.994 9.43199 255.594 8.92799C256.218 8.39999 257.022 7.95599 258.006 7.59598C258.99 7.23599 260.178 7.05599 261.57 7.05599C263.082 7.05599 264.354 7.24799 265.386 7.63199C266.442 7.99199 267.282 8.48399 267.906 9.10799C268.53 9.73199 268.986 10.464 269.274 11.304C269.562 12.144 269.706 13.032 269.706 13.968V25.272C269.706 25.512 269.622 25.716 269.454 25.884C269.286 26.052 269.082 26.136 268.842 26.136H265.926C265.662 26.136 265.446 26.052 265.278 25.884C265.134 25.716 265.062 25.512 265.062 25.272V23.868C264.75 24.3 264.33 24.72 263.802 25.128C263.274 25.536 262.626 25.872 261.858 26.136C261.114 26.376 260.226 26.496 259.194 26.496ZM260.418 23.076C261.258 23.076 262.014 22.896 262.686 22.536C263.382 22.176 263.922 21.624 264.306 20.88C264.714 20.112 264.918 19.152 264.918 18V17.244L261.318 17.82C259.902 18.036 258.846 18.384 258.15 18.864C257.454 19.344 257.106 19.932 257.106 20.628C257.106 21.156 257.262 21.612 257.574 21.996C257.91 22.356 258.33 22.632 258.834 22.824C259.338 22.992 259.866 23.076 260.418 23.076ZM275.224 26.136C274.984 26.136 274.78 26.052 274.612 25.884C274.444 25.716 274.36 25.512 274.36 25.272V1.43998C274.36 1.19998 274.444 0.995985 274.612 0.827986C274.78 0.659985 274.984 0.575985 275.224 0.575985H278.14C278.404 0.575985 278.608 0.659985 278.752 0.827986C278.92 0.995985 279.004 1.19998 279.004 1.43998V13.752L285.052 8.02799C285.292 7.83599 285.484 7.69198 285.628 7.59598C285.796 7.47598 286.048 7.41598 286.384 7.41598H289.732C289.972 7.41598 290.164 7.48799 290.308 7.63199C290.452 7.77599 290.524 7.96799 290.524 8.20799C290.524 8.30399 290.5 8.41199 290.452 8.53199C290.404 8.65199 290.308 8.75999 290.164 8.85599L282.748 15.804L291.064 24.732C291.304 24.972 291.424 25.176 291.424 25.344C291.424 25.584 291.34 25.776 291.172 25.92C291.028 26.064 290.848 26.136 290.632 26.136H287.212C286.852 26.136 286.588 26.088 286.42 25.992C286.276 25.872 286.096 25.716 285.88 25.524L279.004 18.288V25.272C279.004 25.512 278.92 25.716 278.752 25.884C278.608 26.052 278.404 26.136 278.14 26.136H275.224ZM302.577 26.136C301.137 26.136 299.925 25.884 298.941 25.38C297.957 24.876 297.225 24.132 296.745 23.148C296.265 22.14 296.025 20.892 296.025 19.404V11.232H293.181C292.941 11.232 292.737 11.148 292.569 10.98C292.401 10.812 292.317 10.596 292.317 10.332V8.27999C292.317 8.03999 292.401 7.83599 292.569 7.66799C292.737 7.49999 292.941 7.41598 293.181 7.41598H296.025V1.43998C296.025 1.19998 296.097 0.995985 296.241 0.827986C296.409 0.659985 296.625 0.575985 296.889 0.575985H299.805C300.045 0.575985 300.249 0.659985 300.417 0.827986C300.585 0.995985 300.669 1.19998 300.669 1.43998V7.41598H305.169C305.409 7.41598 305.613 7.49999 305.781 7.66799C305.949 7.83599 306.033 8.03999 306.033 8.27999V10.332C306.033 10.596 305.949 10.812 305.781 10.98C305.613 11.148 305.409 11.232 305.169 11.232H300.669V19.044C300.669 20.028 300.837 20.796 301.173 21.348C301.533 21.9 302.145 22.176 303.009 22.176H305.493C305.733 22.176 305.937 22.26 306.105 22.428C306.273 22.596 306.357 22.8 306.357 23.04V25.272C306.357 25.512 306.273 25.716 306.105 25.884C305.937 26.052 305.733 26.136 305.493 26.136H302.577ZM310.415 26.136C310.175 26.136 309.971 26.052 309.803 25.884C309.635 25.716 309.551 25.512 309.551 25.272V8.27999C309.551 8.03999 309.635 7.83599 309.803 7.66799C309.971 7.49999 310.175 7.41598 310.415 7.41598H313.403C313.667 7.41598 313.871 7.49999 314.015 7.66799C314.183 7.83599 314.267 8.03999 314.267 8.27999V25.272C314.267 25.512 314.183 25.716 314.015 25.884C313.871 26.052 313.667 26.136 313.403 26.136H310.415ZM310.271 4.31999C310.031 4.31999 309.827 4.23599 309.659 4.06799C309.491 3.89999 309.407 3.69599 309.407 3.45598V0.863986C309.407 0.623986 309.491 0.419986 309.659 0.251985C309.827 0.0839856 310.031 -1.40667e-05 310.271 -1.40667e-05H313.547C313.811 -1.40667e-05 314.027 0.0839856 314.195 0.251985C314.363 0.419986 314.447 0.623986 314.447 0.863986V3.45598C314.447 3.69599 314.363 3.89999 314.195 4.06799C314.027 4.23599 313.811 4.31999 313.547 4.31999H310.271Z" fill="#C5151D"/>
</svg>
