<svg width="27" height="35" viewBox="0 0 27 35" fill="none" xmlns="http://www.w3.org/2000/svg">
<path d="M13.152 34.0801C10.912 34.0801 8.976 33.8081 7.344 33.2641C5.712 32.7201 4.352 32.0161 3.264 31.1521C2.208 30.2561 1.408 29.2961 0.863999 28.2721C0.319999 27.2161 0.0319991 26.1761 -9.53674e-07 25.1521C-9.53674e-07 24.8641 0.0959991 24.6401 0.287999 24.4801C0.511999 24.2881 0.767999 24.1921 1.056 24.1921H5.376C5.696 24.1921 5.968 24.2561 6.192 24.3841C6.416 24.5121 6.608 24.7681 6.768 25.1521C7.056 26.0161 7.52 26.7041 8.16 27.2161C8.832 27.7281 9.6 28.0961 10.464 28.3201C11.328 28.5121 12.24 28.6081 13.2 28.6081C15.12 28.6081 16.64 28.1601 17.76 27.2641C18.912 26.3361 19.488 25.0241 19.488 23.3281C19.488 21.6321 18.96 20.4161 17.904 19.6801C16.848 18.9121 15.376 18.5281 13.488 18.5281H8.544C8.192 18.5281 7.904 18.4321 7.68 18.2401C7.456 18.0161 7.344 17.7281 7.344 17.3761V15.3601C7.344 15.0401 7.408 14.7681 7.536 14.5441C7.696 14.2881 7.856 14.0801 8.016 13.9201L16.608 5.5201H2.88C2.528 5.5201 2.24 5.4081 2.016 5.1841C1.824 4.9601 1.728 4.6881 1.728 4.3681V1.2001C1.728 0.848096 1.824 0.560096 2.016 0.336097C2.24 0.112096 2.528 9.53674e-05 2.88 9.53674e-05H23.472C23.824 9.53674e-05 24.112 0.112096 24.336 0.336097C24.56 0.560096 24.672 0.848096 24.672 1.2001V4.0801C24.672 4.3681 24.608 4.6241 24.48 4.8481C24.352 5.0721 24.208 5.2641 24.048 5.4241L15.744 13.9681L16.32 14.0161C18.272 14.1761 20 14.6241 21.504 15.3601C23.04 16.0641 24.224 17.1041 25.056 18.4801C25.92 19.8561 26.352 21.5841 26.352 23.6641C26.352 25.8401 25.776 27.7121 24.624 29.2801C23.504 30.8161 21.952 32.0001 19.968 32.8321C17.984 33.6641 15.712 34.0801 13.152 34.0801Z" fill="#C5151D"/>
</svg>
