<svg width="26" height="35" viewBox="0 0 26 35" fill="none" xmlns="http://www.w3.org/2000/svg">
<path d="M1.15197 34.176C0.831966 34.176 0.559966 34.064 0.335966 33.84C0.111966 33.616 -3.40939e-05 33.344 -3.40939e-05 33.024V30.576C-3.40939e-05 30.288 0.0639659 29.952 0.191966 29.568C0.351966 29.152 0.687966 28.736 1.19997 28.32L8.78397 20.784C10.896 19.12 12.592 17.712 13.872 16.56C15.184 15.376 16.128 14.304 16.704 13.344C17.312 12.352 17.616 11.376 17.616 10.416C17.616 8.97602 17.216 7.80802 16.416 6.91202C15.648 6.01602 14.416 5.56802 12.72 5.56802C11.6 5.56802 10.656 5.80802 9.88797 6.28802C9.11997 6.73602 8.51197 7.34402 8.06397 8.11202C7.64797 8.88002 7.35997 9.72802 7.19997 10.656C7.13597 11.072 6.95997 11.36 6.67197 11.52C6.38397 11.68 6.09597 11.76 5.80797 11.76H1.53597C1.24797 11.76 1.00797 11.664 0.815966 11.472C0.623966 11.28 0.527966 11.056 0.527966 10.8C0.559966 9.42402 0.847966 8.09602 1.39197 6.81602C1.93597 5.50402 2.71997 4.35203 3.74397 3.36002C4.79997 2.33602 6.07997 1.52002 7.58397 0.912024C9.08797 0.304025 10.784 2.47955e-05 12.672 2.47955e-05C15.328 2.47955e-05 17.52 0.448025 19.248 1.34402C21.008 2.24002 22.32 3.45602 23.184 4.99202C24.08 6.52802 24.528 8.25603 24.528 10.176C24.528 11.68 24.24 13.072 23.664 14.352C23.088 15.6 22.256 16.816 21.168 18C20.08 19.152 18.768 20.336 17.232 21.552L10.416 28.464H24.096C24.448 28.464 24.72 28.576 24.912 28.8C25.136 28.992 25.248 29.264 25.248 29.616V33.024C25.248 33.344 25.136 33.616 24.912 33.84C24.72 34.064 24.448 34.176 24.096 34.176H1.15197Z" fill="#C5151D"/>
</svg>
