<svg width="35" height="35" viewBox="0 0 35 35" fill="none" xmlns="http://www.w3.org/2000/svg">
<path fill-rule="evenodd" clip-rule="evenodd" d="M17.5 0C27.1652 0 35 7.83475 35 17.5C35 27.1652 27.1652 35 17.5 35C7.83475 35 0 27.1652 0 17.5C0 7.83475 7.83475 0 17.5 0ZM20.972 21.4375C20.0445 22.2565 18.8318 22.75 17.5 22.75C16.2215 22.7499 14.9869 22.2832 14.028 21.4375C13.6799 21.1302 13.224 20.9739 12.7606 21.0027C12.2972 21.0316 11.8643 21.2434 11.557 21.5915C11.2497 21.9396 11.0934 22.3955 11.1222 22.8589C11.1511 23.3223 11.3629 23.7552 11.711 24.0625C13.3098 25.4725 15.3683 26.2503 17.5 26.25C19.6323 26.2536 21.6919 25.4753 23.289 24.0625C23.6371 23.7552 23.8489 23.3223 23.8778 22.8589C23.9066 22.3955 23.7503 21.9396 23.443 21.5915C23.1357 21.2434 22.7028 21.0316 22.2394 21.0027C21.776 20.9739 21.3201 21.1302 20.972 21.4375ZM11.375 10.5C9.47275 10.5 7.9485 11.69 7.1855 13.216C6.98492 13.6152 6.94464 14.0761 7.07292 14.5041C7.2012 14.9321 7.48832 15.2948 7.87543 15.5179C8.26255 15.741 8.72033 15.8075 9.15496 15.704C9.58958 15.6004 9.96813 15.3345 10.213 14.9607L10.3145 14.784C10.598 14.217 11.032 14 11.375 14C11.6725 14 12.0435 14.1663 12.3218 14.588L12.4355 14.784C12.6456 15.1952 13.0097 15.5068 13.4485 15.6507C13.8872 15.7946 14.3651 15.7593 14.778 15.5524C15.1908 15.3455 15.5051 14.9839 15.6525 14.5462C15.7998 14.1086 15.7682 13.6304 15.5645 13.216C14.7998 11.69 13.2773 10.5 11.375 10.5ZM23.625 10.5C21.7227 10.5 20.2003 11.69 19.4355 13.216C19.2349 13.6152 19.1946 14.0761 19.3229 14.5041C19.4512 14.9321 19.7383 15.2948 20.1254 15.5179C20.5125 15.741 20.9703 15.8075 21.405 15.704C21.8396 15.6004 22.2181 15.3345 22.463 14.9607L22.5645 14.784C22.848 14.217 23.282 14 23.625 14C23.9225 14 24.2935 14.1663 24.5718 14.588L24.6855 14.784C24.7874 14.9913 24.9293 15.1763 25.103 15.3285C25.2767 15.4807 25.4788 15.597 25.6977 15.6707C25.9166 15.7443 26.1479 15.774 26.3783 15.7578C26.6087 15.7417 26.8336 15.6801 27.0401 15.5767C27.2466 15.4732 27.4305 15.3299 27.5814 15.155C27.7322 14.9801 27.8469 14.777 27.9189 14.5576C27.9909 14.3381 28.0187 14.1066 28.0008 13.8764C27.9829 13.6461 27.9196 13.4217 27.8145 13.216C27.0515 11.69 25.5273 10.5 23.625 10.5Z" fill="white"/>
</svg>
