<svg width="34" height="34" viewBox="0 0 34 34" fill="none" xmlns="http://www.w3.org/2000/svg">
<path d="M7.1526 13.1234C7.15298 10.1613 8.15527 7.28648 9.99654 4.96625C11.8378 2.64602 14.4098 1.01684 17.2943 0.343561C20.1788 -0.329712 23.2063 -0.00748077 25.8844 1.25787C28.5626 2.52322 30.734 4.65727 32.0457 7.31309C33.3573 9.9689 33.732 12.9903 33.1089 15.8861C32.4858 18.7818 30.9015 21.3817 28.6135 23.2629C26.3256 25.1442 23.4686 26.1962 20.507 26.248C17.5454 26.2998 14.6534 25.3483 12.3011 23.5481L9.1721 26.6754L11.6676 29.1709C11.8347 29.3323 11.9681 29.5254 12.0598 29.7389C12.1515 29.9524 12.1998 30.182 12.2018 30.4144C12.2038 30.6468 12.1595 30.8772 12.0715 31.0923C11.9836 31.3074 11.8536 31.5027 11.6893 31.6671C11.525 31.8314 11.3296 31.9613 11.1145 32.0493C10.8995 32.1373 10.669 32.1816 10.4367 32.1796C10.2043 32.1775 9.97465 32.1293 9.76115 32.0375C9.54764 31.9458 9.35454 31.8125 9.1931 31.6454L6.6976 29.1516L2.9876 32.8616C2.65923 33.1898 2.21396 33.374 1.74974 33.3738C1.28551 33.3737 0.840369 33.1891 0.51223 32.8607C0.184091 32.5324 -0.00016398 32.0871 1.09504e-07 31.6229C0.000164199 31.1586 0.184734 30.7135 0.513105 30.3854L4.2231 26.6754L1.76785 24.2201C1.60071 24.0587 1.46739 23.8656 1.37568 23.6521C1.28396 23.4386 1.23569 23.2089 1.23367 22.9766C1.23165 22.7442 1.27592 22.5138 1.36392 22.2987C1.45191 22.0836 1.58185 21.8882 1.74616 21.7239C1.91048 21.5596 2.10587 21.4297 2.32094 21.3417C2.536 21.2537 2.76644 21.2094 2.99881 21.2114C3.23117 21.2134 3.4608 21.2617 3.67431 21.3534C3.88782 21.4452 4.08092 21.5785 4.24235 21.7456L6.6976 24.2009L9.8301 21.0684C8.08952 18.7858 7.14861 15.9938 7.1526 13.1234Z" fill="white"/>
</svg>
