<svg width="220" height="11" viewBox="0 0 220 11" fill="none" xmlns="http://www.w3.org/2000/svg">
<path d="M109.21 0.715239C108.548 5.36024 104.328 7.13523 100.074 6.54123C96.924 6.10123 94.155 4.46424 91.367 3.03924C87.159 0.889244 81.589 -1.48877 77.323 1.81323C77.197 1.91023 77.07 2.01523 76.942 2.12323C76.303 1.66023 75.62 1.27724 74.965 0.996245C69.663 -1.27876 62.947 0.571237 58.645 4.23224C57.872 2.69824 56.129 1.43123 53.324 2.64123C52.4 3.04023 51.811 3.70324 51.46 4.46924C47.746 1.16424 42.135 -0.709781 37.226 0.264219C36.242 0.459219 34.543 1.20423 33.03 2.23123C29.583 -0.76977 24.89 0.0712208 20.901 1.85922C17.67 3.30722 14.647 5.40024 11.183 6.27124C6.623 7.41824 1.384 5.99825 0.630998 0.716246C0.578998 0.352246 -0.000998708 0.448237 1.29159e-06 0.801237C0.0210013 6.41924 5.81799 8.57124 10.624 7.66424C16.203 6.61124 20.555 2.07725 26.223 1.39725C28.352 1.14225 30.493 1.62124 32.099 2.92224C30.13 4.52724 28.913 6.58423 30.997 8.34823C32.317 9.46523 34.252 9.01424 35.033 7.50824C35.886 5.86324 34.806 4.06322 33.681 2.85922C33.673 2.85022 33.664 2.84223 33.656 2.83423C33.873 2.68123 34.087 2.54424 34.291 2.42624C39.588 -0.628763 46.579 2.30025 51.008 5.57825C51.043 5.60425 51.078 5.62322 51.113 5.63922C50.762 7.92222 52.46 9.82924 54.913 10.1072C57.259 10.3732 59.197 8.13022 59.111 5.95822C59.104 5.78622 59.083 5.60624 59.049 5.42224C63.489 2.20824 70.337 -0.579763 75.55 2.42624C75.753 2.54324 75.967 2.68023 76.181 2.83023C75.203 3.83523 74.393 5.11123 74.512 6.48123C74.647 8.03123 76.068 9.22824 77.625 8.93524C79.423 8.59624 80.137 6.72622 79.495 5.13522C79.154 4.29122 78.554 3.51823 77.833 2.85223C79.429 1.60623 81.53 1.14725 83.618 1.39725C89.287 2.07625 93.637 6.61124 99.217 7.66424C104.023 8.57124 109.819 6.42424 109.841 0.801237C109.842 0.451237 109.262 0.348239 109.21 0.715239ZM33.611 4.66723C33.888 5.13023 34.195 5.73622 34.155 6.29422C34.018 8.23122 30.933 8.35322 31.309 5.91922C31.444 5.04622 32.05 4.22224 32.769 3.55124C33.08 3.88524 33.364 4.25323 33.611 4.66723ZM58.017 6.31824C57.77 7.98724 56.452 9.05923 54.84 9.01623C52.962 8.96723 51.561 6.72424 52.671 4.99924C54.819 1.66624 58.343 4.12124 58.017 6.31824ZM78.531 5.91922C78.906 8.34722 75.868 8.22922 75.685 6.29422C75.631 5.72922 75.954 5.12823 76.229 4.66723C76.476 4.25323 76.762 3.88423 77.072 3.55023C77.792 4.22023 78.395 5.04322 78.531 5.91922Z" fill="#DF67A3"/>
<path d="M218.43 0.715239C217.768 5.36024 213.548 7.13523 209.294 6.54123C206.144 6.10123 203.375 4.46424 200.587 3.03924C196.379 0.889244 190.809 -1.48877 186.543 1.81323C186.417 1.91023 186.29 2.01523 186.162 2.12323C185.523 1.66023 184.84 1.27724 184.185 0.996245C178.883 -1.27876 172.167 0.571237 167.865 4.23224C167.092 2.69824 165.349 1.43123 162.544 2.64123C161.62 3.04023 161.031 3.70324 160.68 4.46924C156.966 1.16424 151.355 -0.709781 146.446 0.264219C145.462 0.459219 143.763 1.20423 142.25 2.23123C138.803 -0.76977 134.11 0.0712208 130.121 1.85922C126.89 3.30722 123.867 5.40024 120.403 6.27124C115.843 7.41824 110.604 5.99825 109.851 0.716246C109.799 0.352246 109.219 0.448237 109.22 0.801237C109.241 6.41924 115.038 8.57124 119.844 7.66424C125.423 6.61124 129.774 2.07725 135.443 1.39725C137.572 1.14225 139.713 1.62124 141.319 2.92224C139.35 4.52724 138.133 6.58423 140.217 8.34823C141.537 9.46523 143.472 9.01424 144.253 7.50824C145.106 5.86324 144.026 4.06322 142.901 2.85922C142.893 2.85022 142.884 2.84223 142.876 2.83423C143.093 2.68123 143.308 2.54424 143.511 2.42624C148.808 -0.628763 155.799 2.30025 160.228 5.57825C160.263 5.60425 160.298 5.62324 160.333 5.63824C159.982 7.92124 161.68 9.82823 164.133 10.1062C166.479 10.3722 168.417 8.12924 168.331 5.95724C168.324 5.78524 168.303 5.60523 168.269 5.42123C172.709 2.20723 179.557 -0.58077 184.769 2.42523C184.973 2.54223 185.186 2.67922 185.4 2.82922C184.422 3.83422 183.612 5.11022 183.731 6.48022C183.866 8.03022 185.287 9.22723 186.844 8.93423C188.642 8.59523 189.356 6.72524 188.714 5.13424C188.373 4.29025 187.773 3.51723 187.052 2.85123C188.648 1.60523 190.749 1.14624 192.837 1.39624C198.506 2.07524 202.856 6.61024 208.436 7.66324C213.242 8.57024 219.039 6.42323 219.06 0.80023C219.062 0.45123 218.482 0.348239 218.43 0.715239ZM142.831 4.66723C143.108 5.13023 143.415 5.73622 143.375 6.29422C143.238 8.23122 140.152 8.35322 140.529 5.91922C140.664 5.04622 141.27 4.22224 141.989 3.55124C142.3 3.88524 142.584 4.25323 142.831 4.66723ZM167.237 6.31824C166.99 7.98724 165.672 9.05923 164.06 9.01623C162.182 8.96723 160.781 6.72424 161.891 4.99924C164.038 1.66624 167.563 4.12124 167.237 6.31824ZM187.75 5.91922C188.125 8.34722 185.088 8.22922 184.904 6.29422C184.85 5.72922 185.173 5.12823 185.448 4.66723C185.695 4.25323 185.981 3.88423 186.292 3.55023C187.012 4.22023 187.615 5.04322 187.75 5.91922Z" fill="#DF67A3"/>
</svg>
