<svg width="42" height="42" viewBox="0 0 42 42" fill="none" xmlns="http://www.w3.org/2000/svg">
<path fill-rule="evenodd" clip-rule="evenodd" d="M18.8335 10.5438C18.2822 12.4599 17.6493 14.3516 16.9365 16.2138C17.57 16.7983 18.1615 17.437 18.7705 18.046L19.4355 16.716C19.5595 16.4681 19.7407 16.2533 19.964 16.0891C20.1873 15.925 20.4464 15.8162 20.72 15.7718C20.9936 15.7273 21.2738 15.7485 21.5376 15.8336C21.8013 15.9186 22.0412 16.0651 22.2372 16.261L24.0205 18.046L24.6855 16.716C24.7802 16.5271 24.9082 16.357 25.0635 16.2138C24.3507 14.3516 23.7178 12.4599 23.1665 10.5438C23.1455 10.465 23.0247 10.5 22.9653 10.5L21.4253 10.885C21.1461 10.9549 20.8539 10.9549 20.5747 10.885L19.0347 10.5C18.9717 10.5 18.8562 10.4598 18.8335 10.5438ZM6.629 30.2575C6.37 30.7493 6.146 31.1675 5.964 31.4983H5.25C4.78587 31.4983 4.34075 31.6826 4.01256 32.0108C3.68437 32.339 3.5 32.7841 3.5 33.2483C3.5 33.7124 3.68437 34.1575 4.01256 34.4857C4.34075 34.8139 4.78587 34.9983 5.25 34.9983H36.75C37.2141 34.9983 37.6592 34.8139 37.9874 34.4857C38.3156 34.1575 38.5 33.7124 38.5 33.2483C38.5 32.7841 38.3156 32.339 37.9874 32.0108C37.6592 31.6826 37.2141 31.4983 36.75 31.4983H36.0342C35.8534 31.1646 35.6318 30.751 35.3693 30.2575C34.4103 28.4437 33.4849 26.6123 32.5938 24.7642C30.4325 20.286 27.9493 14.6002 26.5352 9.59175C26.328 8.84845 25.8837 8.19313 25.27 7.72535C24.6563 7.25756 23.9067 7.00288 23.135 7C22.3948 7 21.7175 7.20475 21.0018 7.385C20.2843 7.20475 19.6087 7 18.8668 7C17.255 7 15.89 8.092 15.4665 9.59175C14.0525 14.602 11.5675 20.2878 9.408 24.766C8.51625 26.6147 7.59034 28.4466 6.63075 30.261" fill="white"/>
</svg>
