<svg width="42" height="42" viewBox="0 0 42 42" fill="none" xmlns="http://www.w3.org/2000/svg">
<path d="M25.375 28C26.0842 28 26.7828 28.1724 27.4106 28.5023C28.0384 28.8323 28.5766 29.3099 28.9787 29.8941C29.3809 30.4783 29.6351 31.1514 29.7192 31.8556C29.8034 32.5599 29.7152 33.274 29.462 33.9365C29.2089 34.599 28.7985 35.19 28.2662 35.6587C27.7339 36.1274 27.0956 36.4596 26.4064 36.6267C25.7171 36.7939 24.9976 36.791 24.3097 36.6183C23.6218 36.4456 22.9863 36.1082 22.4578 35.6353C22.1265 35.3383 21.9207 34.9264 21.8823 34.4832C21.8439 34.0399 21.9757 33.5987 22.251 33.2492C22.5262 32.8998 22.9243 32.6682 23.3641 32.6017C23.804 32.5352 24.2527 32.6387 24.619 32.8913L24.7922 33.0277C24.898 33.1222 25.0252 33.1895 25.1627 33.2239C25.3003 33.2583 25.4442 33.2587 25.5819 33.2252C25.7197 33.1916 25.8473 33.1251 25.9536 33.0313C26.06 32.9376 26.142 32.8193 26.1925 32.6868C26.243 32.5544 26.2606 32.4116 26.2437 32.2708C26.2268 32.13 26.176 31.9954 26.0956 31.8787C26.0151 31.7619 25.9075 31.6664 25.782 31.6004C25.6565 31.5345 25.5168 31.5 25.375 31.5H12.25C11.7859 31.5 11.3408 31.3156 11.0126 30.9874C10.6844 30.6593 10.5 30.2141 10.5 29.75C10.5 29.2859 10.6844 28.8407 11.0126 28.5126C11.3408 28.1844 11.7859 28 12.25 28H25.375ZM20.125 3.5C22.4393 3.49929 24.6988 4.20453 26.6018 5.52157C28.5048 6.83861 29.9609 8.70479 30.7755 10.871C32.8007 11.4265 34.6128 12.5763 35.978 14.1719C37.3432 15.7676 38.1988 17.7358 38.4343 19.8225C38.6698 21.9093 38.2743 24.0187 37.2991 25.8784C36.3238 27.7382 34.8134 29.2629 32.963 30.2557C32.5819 28.8987 31.8443 27.6685 30.8269 26.6929C29.8095 25.7173 28.5494 25.0321 27.1775 24.7083C28.1428 22.6639 28.2794 20.3252 27.5586 18.1824C26.8377 16.0396 25.3155 14.2589 23.3109 13.2136C21.3062 12.1683 18.9748 11.9395 16.8052 12.5751C14.6356 13.2107 12.7962 14.6615 11.6725 16.6233C11.2108 17.4217 10.9675 18.3277 10.9673 19.25H5.25C4.8825 19.25 4.52667 19.2862 4.1825 19.3585C5.05651 17.2875 6.69115 15.6303 8.75 14.728C8.78866 11.7367 10.0041 8.88106 12.1332 6.77952C14.2622 4.67799 17.1335 3.49975 20.125 3.5ZM19.25 15.75C20.6424 15.75 21.9777 16.3031 22.9623 17.2877C23.9469 18.2723 24.5 19.6076 24.5 21C24.5 22.3924 23.9469 23.7277 22.9623 24.7123C21.9777 25.6969 20.6424 26.25 19.25 26.25H5.25C4.78587 26.25 4.34075 26.0656 4.01256 25.7374C3.68437 25.4092 3.5 24.9641 3.5 24.5C3.5 24.0359 3.68437 23.5908 4.01256 23.2626C4.34075 22.9344 4.78587 22.75 5.25 22.75H19.25C19.5487 22.75 19.8424 22.6736 20.1031 22.5279C20.3639 22.3823 20.5831 22.1724 20.7398 21.9182C20.8965 21.6639 20.9855 21.3738 20.9984 21.0754C21.0112 20.777 20.9475 20.4803 20.8133 20.2135C20.679 19.9467 20.4787 19.7187 20.2315 19.5511C19.9842 19.3836 19.6982 19.2822 19.4006 19.2565C19.103 19.2308 18.8039 19.2817 18.5315 19.4043C18.2592 19.5269 18.0228 19.7172 17.8447 19.957L17.7328 20.1268C17.5002 20.5285 17.1176 20.8213 16.6692 20.941C16.2207 21.0606 15.7431 20.9972 15.3414 20.7646C14.9397 20.5321 14.6468 20.1495 14.5272 19.701C14.4075 19.2526 14.471 18.775 14.7035 18.3732C15.1645 17.5755 15.8273 16.9131 16.6254 16.4526C17.4234 15.9922 18.3286 15.7498 19.25 15.75Z" fill="white"/>
</svg>
